<?xml version="1.0" encoding="UTF-8"?>
<svg width="62px" height="62px" viewBox="0 0 62 62" version="1.1" xmlns="http://www.w3.org/2000/svg" xmlns:xlink="http://www.w3.org/1999/xlink">
    <title>Artboard</title>
    <g id="Artboard" stroke="none" stroke-width="1" fill="none" fill-rule="evenodd">
        <rect fill="#FFFFFF" x="0" y="0" width="62" height="62"></rect>
        <g id="Group" transform="translate(-12.053824, -11.911688)">
            <g id="compass" transform="translate(42.426407, 42.426407) rotate(135.000000) translate(-42.426407, -42.426407) translate(12.426407, 12.426407)" fill="#000000" fill-rule="nonzero">
                <path d="M27.6442117,28.5850535 C27.5793127,28.5203525 27.4423037,28.5203525 27.3774047,28.6497546 L23.0147484,37.3484464 C22.9498494,37.4850375 23.0796474,37.6863295 23.2815555,37.6144395 L32.006868,33.2650935 C32.071767,33.2003925 32.1438771,33.0709905 32.006868,32.9343995 L27.6442117,28.5850535 Z" id="XMLID_3_"></path>
                <path d="M33.301066,22.9281993 C33.236167,22.8634983 33.0991579,22.8634983 33.0342589,22.9929003 L28.6716026,31.6915922 C28.6067036,31.8281832 28.7365017,32.0294752 28.9384097,31.9575852 L37.6637223,27.6082393 C37.7286213,27.5435383 37.8007313,27.4141362 37.6637223,27.2775452 L33.301066,22.9281993 Z" id="XMLID_3_-Copy" transform="translate(33.198239, 27.429178) rotate(180.000000) translate(-33.198239, -27.429178) "></path>
                <path d="M30,0 C13.4179688,0 0,13.4179688 0,30 C0,46.5820312 13.4179688,60 30,60 C46.5820312,60 60,46.5820312 60,30 C60,13.4179688 46.5820312,0 30,0 Z M19.4703491,41.4390991 C19.3293335,41.505896 19.121521,41.3723022 19.1957397,41.1644897 L26.5879272,26.5879272 L26.6547241,26.5211304 L41.2312866,19.1957397 C41.3723022,19.1289429 41.5801147,19.2625366 41.505896,19.4703491 L34.0469116,34.1137085 L19.4703491,41.4390991 Z" id="XMLID_6_"></path>
            </g>
            <text id="G" font-family="Futura-Medium, Futura" font-size="14" font-weight="400" fill="#FFFFFF">
                <tspan x="52.0832611" y="47.4264069">G</tspan>
            </text>
            <text id="N" font-family="Futura-Medium, Futura" font-size="14" font-weight="400" fill="#FFFFFF">
                <tspan x="20.3038239" y="47.4264069">N</tspan>
            </text>
        </g>
    </g>
</svg>